<svg id="Layer_1" data-name="Layer 1" xmlns="http://www.w3.org/2000/svg" viewBox="0 0 261.76 116.24"><defs><style>.cls-1{fill:#fff;}</style></defs><path class="cls-1" d="M4.46,103.45h.25c.15,0,.27-.13.37-.4a2.53,2.53,0,0,0,.12-.82c0-.38,0-1.5,0-3.37V96.93a.87.87,0,0,0-.11-.41.81.81,0,0,0-.83-.47c-.12,0-.18,0-.18-.14s0-.17.09-.17h2l1.18,0A2.63,2.63,0,0,1,9,96.2a1.66,1.66,0,0,1,.65,1.4,1.83,1.83,0,0,1-1,1.59l-.11.09s.06,0,.18.09a2.57,2.57,0,0,1,.44.17,2.38,2.38,0,0,1,.51.32,1.62,1.62,0,0,1,.43.61,2.17,2.17,0,0,1,.18.91,2.54,2.54,0,0,1-.26,1.07,2.23,2.23,0,0,1-.69.86,2.6,2.6,0,0,1-.82.43,3.23,3.23,0,0,1-.91.12c-.34,0-.74,0-1.21-.06l-.78-.07-.92,0H4.57c-.15,0-.23-.06-.23-.17S4.38,103.45,4.46,103.45ZM6,102.23v.5c0,.45.35.68,1,.68h.25a5.78,5.78,0,0,0,1-.08,1.2,1.2,0,0,0,.75-.54,1.84,1.84,0,0,0,.32-1.06,2.29,2.29,0,0,0-.19-1,1.75,1.75,0,0,0-.44-.61,2,2,0,0,0-.59-.32,2.84,2.84,0,0,0-.87-.15l-.84,0H6.31a.26.26,0,0,0-.14,0s0,.09-.08.22a13.93,13.93,0,0,0,0,1.59ZM6.1,97.6a8,8,0,0,0,.07,1.58s.24.08.61.08h.69a1.29,1.29,0,0,0,1-.37,1.45,1.45,0,0,0,.34-1,1.73,1.73,0,0,0-.57-1.2,2.07,2.07,0,0,0-1.6-.6.46.46,0,0,0-.44.21,2.63,2.63,0,0,0-.11,1Z"/><path class="cls-1" d="M11.23,99.93a4.52,4.52,0,0,1,1.08-3.12,3.88,3.88,0,0,1,3.06-1.22,4.55,4.55,0,0,1,1.66.29,3.45,3.45,0,0,1,1.17.69,4.25,4.25,0,0,1,.72,1,3.84,3.84,0,0,1,.5,1.81,5.43,5.43,0,0,1-.57,2.6,3.78,3.78,0,0,1-3.63,2,4,4,0,0,1-2.19-.59,3.63,3.63,0,0,1-1.36-1.48A4.43,4.43,0,0,1,11.23,99.93Zm.94-.58a4.7,4.7,0,0,0,.51,2.06,4.43,4.43,0,0,0,.65,1,3,3,0,0,0,1,.73,2.83,2.83,0,0,0,2.84-.2,2.9,2.9,0,0,0,1.21-1.48,3.08,3.08,0,0,0,.2-1.11,4.61,4.61,0,0,0-1-3.19A3.24,3.24,0,0,0,15,96.05a2.73,2.73,0,0,0-2,.83A3.38,3.38,0,0,0,12.17,99.35Z"/><path class="cls-1" d="M20.71,95.64l.87,0c.49,0,1.45,0,2.89,0a25.1,25.1,0,0,0,2.6-.07.17.17,0,0,1,.16.07.21.21,0,0,1,0,.12l.06.92a1.27,1.27,0,0,1,0,.36c0,.05-.07.07-.14.07s-.1-.08-.14-.23a1.86,1.86,0,0,0-.12-.36c-.11-.19-.42-.29-.94-.29H24.57c-.17,0-.27,0-.31.11a1.71,1.71,0,0,0-.06.61v.56l0,4.14v.74a1,1,0,0,0,.14.63,1,1,0,0,0,.32.22,1,1,0,0,0,.29.09c.2,0,.3.08.3.2s0,.14-.06.16a.43.43,0,0,1-.2,0l-1.19-.09-1.09.08c-.26,0-.4-.06-.4-.18s0-.13.07-.15a.63.63,0,0,1,.25-.07l.24,0a.5.5,0,0,0,.41-.45c.07-.67.1-2.09.1-4.28v-2a.29.29,0,0,0-.11-.27,3.46,3.46,0,0,0-.79,0,9.08,9.08,0,0,0-1,0,2.12,2.12,0,0,0-.44.08.53.53,0,0,0-.16.17,1.13,1.13,0,0,0-.15.29c0,.11-.06.19-.08.26s-.09.26-.2.26-.12-.06-.12-.19a6.81,6.81,0,0,1,.05-.82c0-.25.06-.39.06-.43a.23.23,0,0,0,0-.07s0,0,0-.06a.07.07,0,0,1,0,0l0,0a.08.08,0,0,1,0,0l.05,0Z"/><path class="cls-1" d="M32.55,96l.25-.09c.09,0,.15,0,.16.09.15.91.23,1.45.23,1.61s0,.24-.15.24-.13-.08-.19-.24a2.35,2.35,0,0,0-.22-.45l-.17-.26-.28-.27a1.9,1.9,0,0,0-1.32-.54,1.87,1.87,0,0,0-1.19.34,1,1,0,0,0-.45.88,1.33,1.33,0,0,0,.26.87,1.68,1.68,0,0,0,.7.51c.29.12.6.23.92.34A4.39,4.39,0,0,1,33,100.12a1.76,1.76,0,0,1,.43,1.21,2.54,2.54,0,0,1-.71,1.89,2.47,2.47,0,0,1-1.78.69,6.46,6.46,0,0,1-1.19-.08,3.09,3.09,0,0,1-.92-.35,2,2,0,0,1-.33-.88,5.87,5.87,0,0,1-.19-1c0-.13.05-.2.14-.2a.16.16,0,0,1,.18.12,3.24,3.24,0,0,0,.93,1.42,2.15,2.15,0,0,0,1.4.47,1.84,1.84,0,0,0,1.3-.45,1.54,1.54,0,0,0,.49-1.17,1.26,1.26,0,0,0-.33-.89,2,2,0,0,0-.76-.52,12.78,12.78,0,0,1-2.17-.91,1.89,1.89,0,0,1-1-1.65,2.06,2.06,0,0,1,.69-1.63A2.59,2.59,0,0,1,31,95.59a3,3,0,0,1,1,.19Z"/><path class="cls-1" d="M44.56,95.74l.95,0c.14,0,.21,0,.21.16a.14.14,0,0,1-.06.12.71.71,0,0,1-.17.11,1,1,0,0,0-.19.15,1.1,1.1,0,0,0-.11.12l-.08.15a1.47,1.47,0,0,0-.06.14c0,.1-.54,1.25-1.46,3.45s-1.43,3.41-1.53,3.63-.17.32-.23.32-.24-.33-.49-1l-.29-.69q-.16-.45-.3-.75c-.08-.21-.16-.41-.25-.62-.17-.44-.28-.65-.33-.65a6,6,0,0,0-.72,1.56c-.41,1-.62,1.6-.64,1.68a.76.76,0,0,1-.05.16.24.24,0,0,0,0,.08.14.14,0,0,0,0,.06.33.33,0,0,1,0,.06.43.43,0,0,0,0,.05s0,0,0,0a0,0,0,0,1,0,0h0l0,0q-.1,0-.24-.33c-.09-.21-.26-.63-.5-1.26s-.53-1.33-.86-2.1-.73-1.76-1.2-3a3.61,3.61,0,0,0-.43-.86,1.43,1.43,0,0,0-.42-.39,1.17,1.17,0,0,0-.33-.09.75.75,0,0,1-.24,0c-.06,0-.08-.09-.08-.18s.09-.15.28-.15l1.18,0,.92,0q.1,0,.12,0a.13.13,0,0,1,0,.1s-.08.11-.23.2a.37.37,0,0,0-.23.34,3.43,3.43,0,0,0,.32,1c.72,1.69,1.18,2.82,1.41,3.37s.37.93.44,1.1c.15.34.24.5.28.5a3,3,0,0,0,.34-.7c.2-.47.35-.82.44-1.07s.16-.4.19-.48a.94.94,0,0,0,.12-.38A12.11,12.11,0,0,0,39.24,98a8,8,0,0,0-.91-1.82.45.45,0,0,0-.28-.14h-.11a2.68,2.68,0,0,1-.37-.06.12.12,0,0,1-.06-.12c0-.11.1-.16.31-.16l1.17,0,.71,0c.21,0,.32,0,.32.08s0,.1-.12.14-.34.27-.34.43a3.69,3.69,0,0,0,.33,1,3.46,3.46,0,0,1,.15.38c.19.51.31.77.36.77a3,3,0,0,0,.42-1,6.36,6.36,0,0,0,.35-1.19A.29.29,0,0,0,41,96.1a1.51,1.51,0,0,0-.33-.13c-.1,0-.16-.07-.16-.13s.08-.12.24-.12l.68,0h.19l.56,0h.1c.09,0,.14,0,.14.11s-.07.13-.21.18a.8.8,0,0,0-.32.2,2.16,2.16,0,0,0-.3.59c-.12.3-.28.72-.49,1.24s-.34.83-.37.94a.73.73,0,0,0-.06.26,16.25,16.25,0,0,0,.66,1.65,5.26,5.26,0,0,0,.77,1.54,16.11,16.11,0,0,0,1.24-2.86,26.15,26.15,0,0,0,1.12-3.09.42.42,0,0,0-.12-.33.66.66,0,0,0-.27-.12c-.27,0-.4-.08-.4-.18s0-.08,0-.09.08,0,.17,0Z"/><path class="cls-1" d="M46,103.77l-.92,0c-.2,0-.31,0-.31-.13a.22.22,0,0,1,.16-.22,1.24,1.24,0,0,0,.6-.6c.17-.32.6-1.26,1.29-2.85s1.3-3,1.84-4.18a.58.58,0,0,1,.13-.21.26.26,0,0,1,.17-.05c.08,0,.12,0,.14.05a.94.94,0,0,1,.12.3c.06.17.1.31.14.4l.15.44c.07.2.19.51.34.92s.52,1.3,1.08,2.67.88,2.16,1,2.35a1.35,1.35,0,0,0,.35.47.78.78,0,0,0,.39.22l.28,0a.18.18,0,0,1,.11.18c0,.11-.1.17-.29.17l-1-.07-1,0a1.74,1.74,0,0,1-.42,0,.12.12,0,0,1-.09-.12.15.15,0,0,1,.09-.14.36.36,0,0,1,.18-.07.33.33,0,0,0,.18-.1.38.38,0,0,0,.09-.28,4.16,4.16,0,0,0-.27-1,10,10,0,0,0-.45-1.13.45.45,0,0,0-.44-.2l-1.29,0h-.57a2,2,0,0,0-.61,0,.45.45,0,0,0-.2.24c0,.12-.13.29-.23.5s-.17.37-.2.45-.08.19-.13.32a1.62,1.62,0,0,0-.14.56.53.53,0,0,0,.12.37.54.54,0,0,0,.28.16q.39,0,.39.21a.21.21,0,0,1,0,.12s-.07,0-.15,0Zm2-5.21a10,10,0,0,0-.51,1.39c0,.09,0,.15.09.17a1.87,1.87,0,0,0,.45,0h.33l1,0c.28,0,.42,0,.42-.16a8.88,8.88,0,0,0-.53-1.42c-.35-.83-.57-1.25-.66-1.25A4.51,4.51,0,0,0,48,98.56Z"/><path class="cls-1" d="M54.92,103.79l-.91,0c-.15,0-.23-.06-.23-.18s0-.11.14-.13a1.18,1.18,0,0,0,.34-.17.82.82,0,0,0,.29-.49,16.67,16.67,0,0,0,.18-2.17c.06-1.24.1-2.13.1-2.69a2.84,2.84,0,0,0-.26-1.32,1,1,0,0,0-.83-.55c-.1,0-.14-.06-.14-.17a.17.17,0,0,1,.07-.13.31.31,0,0,1,.19-.06h.41l.52,0a.56.56,0,0,1,.23.06q.13.06.15.12a.67.67,0,0,0,.12.17l.25.31a3.12,3.12,0,0,1,.29.37q1.45,2,3.9,4.83l.15.19a.75.75,0,0,1,.13.15l.08.1a.19.19,0,0,0,.12.07c.07,0,.11-.23.11-.7v-1.32l0-2.32v-.08c0-.7-.11-1.14-.34-1.33a.75.75,0,0,0-.21-.13l-.25-.06c-.29-.06-.44-.15-.44-.25s.07-.17.21-.17h1l1,0a.51.51,0,0,1,.25,0,.15.15,0,0,1,.07.12.13.13,0,0,1-.07.12,1.34,1.34,0,0,1-.31.14c-.23.13-.35.56-.35,1.28v.43l-.12,5.6v.23c0,.17-.05.26-.15.26a.25.25,0,0,1-.17-.08C58,101,56.61,99.25,56.15,98.7a4.33,4.33,0,0,0-.77-.82c-.07,0-.1.31-.1.92s0,1.34-.05,2.17,0,1.27,0,1.35a1.44,1.44,0,0,0,.17.77.56.56,0,0,0,.35.3l.36.08c.11,0,.17.08.17.16s0,.13,0,.15a.21.21,0,0,1-.13,0Z"/><path class="cls-1" d="M63.35,103.77l-.92,0c-.2,0-.31,0-.31-.13a.22.22,0,0,1,.16-.22,1.24,1.24,0,0,0,.6-.6c.17-.32.6-1.26,1.29-2.85s1.3-3,1.84-4.18a.58.58,0,0,1,.13-.21.29.29,0,0,1,.17-.05.19.19,0,0,1,.15.05,1.52,1.52,0,0,1,.11.3c.06.17.1.31.14.4l.15.44c.07.2.19.51.35.92s.51,1.3,1.07,2.67.88,2.16,1,2.35a1.35,1.35,0,0,0,.35.47.78.78,0,0,0,.39.22l.28,0a.18.18,0,0,1,.11.18c0,.11-.09.17-.29.17l-1-.07-1,0a1.79,1.79,0,0,1-.43,0,.12.12,0,0,1-.09-.12.15.15,0,0,1,.09-.14.4.4,0,0,1,.18-.07.33.33,0,0,0,.18-.1.38.38,0,0,0,.09-.28,4.16,4.16,0,0,0-.27-1,10,10,0,0,0-.45-1.13c-.06-.13-.21-.2-.44-.2l-1.29,0h-.57a1.86,1.86,0,0,0-.6,0,.46.46,0,0,0-.21.24c0,.12-.13.29-.23.5s-.17.37-.2.45-.08.19-.13.32a1.62,1.62,0,0,0-.14.56.53.53,0,0,0,.12.37.54.54,0,0,0,.28.16q.39,0,.39.21a.21.21,0,0,1,0,.12s-.07,0-.15,0Zm2-5.21a10,10,0,0,0-.51,1.39c0,.09,0,.15.09.17a1.87,1.87,0,0,0,.45,0h.34l1,0c.28,0,.42,0,.42-.16a8.88,8.88,0,0,0-.53-1.42c-.34-.83-.57-1.25-.66-1.25A4.51,4.51,0,0,0,65.32,98.56Z"/><path class="cls-1" d="M74.43,99.22V97.47a8,8,0,0,0,0-.8.53.53,0,0,0-.29-.44,1.09,1.09,0,0,0-.5-.16q-.24,0-.24-.18c0-.11.1-.16.3-.16l1.21,0,.94,0c.19,0,.29,0,.29.16s-.17.16-.5.31-.34.53-.34,1.3l0,4.19a2.53,2.53,0,0,0,.25,1.33c.17.26.35.39.53.39h.21a.28.28,0,0,1,.15,0,.14.14,0,0,1,.08.13c0,.11-.09.16-.27.16l-1,0-1.17.06c-.32,0-.48-.06-.48-.17s.11-.17.33-.2a.53.53,0,0,0,.27-.15.51.51,0,0,0,.17-.29,11.94,11.94,0,0,0,.09-1.37c0-.8.05-1.38.05-1.74Z"/><path class="cls-1" d="M78.34,103.79l-.91,0c-.15,0-.23-.06-.23-.18s0-.11.14-.13a1.18,1.18,0,0,0,.34-.17.87.87,0,0,0,.29-.49,18.92,18.92,0,0,0,.18-2.17c.06-1.24.1-2.13.1-2.69A2.84,2.84,0,0,0,78,96.66a1,1,0,0,0-.84-.55c-.09,0-.14-.06-.14-.17a.19.19,0,0,1,.08-.13.29.29,0,0,1,.19-.06h.41l.52,0a.56.56,0,0,1,.23.06.32.32,0,0,1,.15.12.67.67,0,0,0,.12.17l.25.31a3.12,3.12,0,0,1,.29.37q1.45,2,3.89,4.83l.16.19.13.15.08.1a.19.19,0,0,0,.12.07c.07,0,.1-.23.1-.7v-1.32l0-2.32v-.08c0-.7-.11-1.14-.34-1.33a.92.92,0,0,0-.21-.13l-.25-.06c-.29-.06-.44-.15-.44-.25s.07-.17.2-.17h1l1,0a.49.49,0,0,1,.25,0,.13.13,0,0,1,.07.12.14.14,0,0,1-.06.12,1.34,1.34,0,0,1-.31.14c-.24.13-.35.56-.35,1.28v.43l-.12,5.6v.23c0,.17,0,.26-.15.26a.25.25,0,0,1-.17-.08C81.44,101,80,99.25,79.57,98.7a4.33,4.33,0,0,0-.77-.82c-.07,0-.11.31-.11.92s0,1.34,0,2.17,0,1.27,0,1.35a1.45,1.45,0,0,0,.16.77.56.56,0,0,0,.36.3l.36.08c.11,0,.17.08.17.16a.22.22,0,0,1,0,.15.23.23,0,0,1-.13,0Z"/><path class="cls-1" d="M86.16,95.64l.87,0c.49,0,1.45,0,2.89,0a25.1,25.1,0,0,0,2.6-.07.18.18,0,0,1,.16.07.21.21,0,0,1,0,.12l.06.92a1.27,1.27,0,0,1,0,.36c0,.05-.07.07-.14.07s-.1-.08-.14-.23a1.32,1.32,0,0,0-.13-.36c-.1-.19-.41-.29-.93-.29H90c-.17,0-.27,0-.31.11a1.71,1.71,0,0,0-.06.61v.56l0,4.14v.74a.94.94,0,0,0,.14.63,1,1,0,0,0,.32.22,1.1,1.1,0,0,0,.28.09c.2,0,.3.08.3.2s0,.14-.05.16a.43.43,0,0,1-.2,0l-1.19-.09-1.09.08c-.26,0-.4-.06-.4-.18s0-.13.07-.15a.63.63,0,0,1,.25-.07l.24,0a.5.5,0,0,0,.41-.45c.07-.67.1-2.09.1-4.28v-2a.29.29,0,0,0-.11-.27,3.46,3.46,0,0,0-.79,0,9.08,9.08,0,0,0-1,0,2.12,2.12,0,0,0-.44.08.53.53,0,0,0-.16.17,1.13,1.13,0,0,0-.15.29c0,.11-.06.19-.08.26s-.09.26-.2.26-.12-.06-.12-.19a6.81,6.81,0,0,1,0-.82c0-.25.06-.39.06-.43a.23.23,0,0,0,0-.07s0,0,0-.06,0,0,0,0l0,0,0,0,.06,0Z"/><path class="cls-1" d="M94.38,99.75l0-2c0-.2,0-.55,0-1a.62.62,0,0,0-.27-.51,1,1,0,0,0-.6-.19c-.11,0-.17-.07-.17-.21s.1-.16.3-.16l.29,0,2.61,0,2.14,0c.13,0,.2.09.2.26s0,.19-.06.45a4.31,4.31,0,0,0-.07.59c0,.24-.05.36-.16.36s-.17-.09-.17-.27a.89.89,0,0,0-.18-.52.56.56,0,0,0-.45-.26c-.64,0-1.13-.08-1.47-.08h-.28a1.46,1.46,0,0,0-.65.08,8.79,8.79,0,0,0-.16,2.5c0,.38.07.57.21.58h1a4.91,4.91,0,0,0,.85,0,.69.69,0,0,0,.63-.58c0-.13.07-.2.14-.2s.12,0,.13,0a.37.37,0,0,1,0,.14L98.19,100l0,.69c0,.19,0,.29-.08.29s-.18-.09-.23-.27a1.2,1.2,0,0,0-.27-.56,1.46,1.46,0,0,0-.78-.16H95.67c-.29,0-.44.07-.44.22l0,1.63v.45c0,.54.09.84.26.9a1.43,1.43,0,0,0,.46.08,7.17,7.17,0,0,0,2.32-.27,1.41,1.41,0,0,0,.77-.52c.09-.19.16-.28.24-.28s.12.06.12.19a1.47,1.47,0,0,1-.46,1,1.21,1.21,0,0,1-.8.49c-.51,0-1.09,0-1.74,0l-1.2-.06-1.45.1c-.15,0-.23,0-.23-.11v-.14s0-.07.11-.09a1,1,0,0,0,.36-.13.75.75,0,0,0,.33-.52,11.21,11.21,0,0,0,.08-1.67Z"/><path class="cls-1" d="M101,98.92V97a1,1,0,0,0-.16-.64.56.56,0,0,0-.36-.25l-.36-.07c-.11,0-.16-.09-.16-.16s.1-.18.31-.18H102l1.07,0a2.59,2.59,0,0,1,1.64.52,1.63,1.63,0,0,1,.69,1.38,2.32,2.32,0,0,1-.21,1,1.71,1.71,0,0,1-.46.63c-.17.12-.32.24-.46.33s-.21.16-.21.19a8.32,8.32,0,0,0,.9,1.46q.9,1.33,1.23,1.71a1.21,1.21,0,0,0,1,.53c.11,0,.16,0,.16.14a.23.23,0,0,1-.13.22,2.05,2.05,0,0,1-.65.06,1.77,1.77,0,0,1-.94-.26,9.49,9.49,0,0,1-1.91-2.72c-.34-.59-.61-.88-.79-.88h-.88a.15.15,0,0,0-.16.11c0,.08,0,.3,0,.67v1.62a1.16,1.16,0,0,0,.2.72.76.76,0,0,0,.46.29l.45.09c.14,0,.2.09.2.17s-.06.18-.19.18l-1.53-.08-1.17,0c-.15,0-.23-.06-.23-.18s.15-.21.45-.25a.45.45,0,0,0,.31-.25,1.24,1.24,0,0,0,.14-.64Zm.89-1.22c0,.78,0,1.26,0,1.44s0,.29.07.33a1,1,0,0,0,.46.1h.42A1.46,1.46,0,0,0,104.54,98a1.86,1.86,0,0,0-.52-1.28,2,2,0,0,0-1.56-.57c-.27,0-.43.07-.49.22a4,4,0,0,0-.08,1Z"/><path class="cls-1" d="M109.1,103.79l-.91,0q-.24,0-.24-.18c0-.07,0-.11.14-.13a1,1,0,0,0,.34-.17.77.77,0,0,0,.29-.49,17.83,17.83,0,0,0,.19-2.17c.06-1.24.09-2.13.09-2.69a2.85,2.85,0,0,0-.25-1.32,1,1,0,0,0-.84-.55c-.09,0-.14-.06-.14-.17a.19.19,0,0,1,.08-.13.29.29,0,0,1,.19-.06h.41l.52,0a.52.52,0,0,1,.22.06q.14.06.15.12l.12.17c.07.07.15.18.26.31a4.68,4.68,0,0,1,.29.37q1.45,2,3.89,4.83a2.31,2.31,0,0,0,.16.19.64.64,0,0,1,.12.15l.09.1s.08.07.11.07.11-.23.11-.7v-1.32l0-2.32v-.08a1.81,1.81,0,0,0-.34-1.33.77.77,0,0,0-.22-.13l-.24-.06c-.3-.06-.44-.15-.44-.25s.06-.17.2-.17h1l1,0a.49.49,0,0,1,.25,0,.13.13,0,0,1,.07.12.14.14,0,0,1-.06.12,1.34,1.34,0,0,1-.31.14c-.24.13-.36.56-.36,1.28v.43l-.11,5.6v.23c0,.17,0,.26-.15.26a.25.25,0,0,1-.18-.08c-2.36-2.91-3.78-4.63-4.24-5.18a4.52,4.52,0,0,0-.76-.82c-.07,0-.11.31-.11.92s0,1.34,0,2.17,0,1.27,0,1.35a1.45,1.45,0,0,0,.16.77.56.56,0,0,0,.36.3l.36.08c.11,0,.16.08.16.16a.24.24,0,0,1,0,.15.24.24,0,0,1-.14,0Z"/><path class="cls-1" d="M117.53,103.77l-.92,0c-.21,0-.31,0-.31-.13a.21.21,0,0,1,.16-.22,1.24,1.24,0,0,0,.6-.6c.17-.32.6-1.26,1.29-2.85l1.83-4.18a.57.57,0,0,1,.14-.21.25.25,0,0,1,.17-.05.17.17,0,0,1,.14.05,2.08,2.08,0,0,1,.12.3c.06.17.1.31.13.4s.09.23.16.44.18.51.34.92.51,1.3,1.08,2.67.88,2.16,1,2.35a1.51,1.51,0,0,0,.36.47.78.78,0,0,0,.39.22,1.46,1.46,0,0,1,.27,0,.17.17,0,0,1,.12.18c0,.11-.1.17-.29.17l-1-.07-1,0a1.74,1.74,0,0,1-.42,0,.12.12,0,0,1-.09-.12.16.16,0,0,1,.08-.14.45.45,0,0,1,.18-.07.32.32,0,0,0,.19-.1.43.43,0,0,0,.08-.28,4.16,4.16,0,0,0-.27-1,8.66,8.66,0,0,0-.44-1.13.46.46,0,0,0-.44-.2l-1.3,0h-.57a1.86,1.86,0,0,0-.6,0,.45.45,0,0,0-.2.24c-.06.12-.13.29-.23.5l-.21.45-.12.32a1.42,1.42,0,0,0-.14.56.53.53,0,0,0,.12.37.48.48,0,0,0,.27.16c.27,0,.4.09.4.21a.21.21,0,0,1,0,.12.21.21,0,0,1-.15,0Zm2-5.21A9.35,9.35,0,0,0,119,100a.16.16,0,0,0,.1.17,1.74,1.74,0,0,0,.45,0h.33l1,0c.28,0,.41,0,.41-.16a8.27,8.27,0,0,0-.52-1.42c-.35-.83-.57-1.25-.66-1.25A4.19,4.19,0,0,0,119.5,98.56Z"/><path class="cls-1" d="M124.65,95.64l.87,0c.49,0,1.45,0,2.89,0a25.1,25.1,0,0,0,2.6-.07.17.17,0,0,1,.16.07.21.21,0,0,1,0,.12l.06.92a1.27,1.27,0,0,1,0,.36c0,.05-.07.07-.14.07s-.1-.08-.14-.23a1.86,1.86,0,0,0-.12-.36c-.11-.19-.42-.29-.93-.29h-1.4c-.17,0-.27,0-.31.11a1.71,1.71,0,0,0-.06.61v.56l0,4.14v.74a1,1,0,0,0,.14.63,1,1,0,0,0,.32.22,1,1,0,0,0,.29.09c.2,0,.3.08.3.2s0,.14-.06.16a.43.43,0,0,1-.2,0l-1.19-.09-1.09.08c-.26,0-.4-.06-.4-.18a.17.17,0,0,1,.07-.15.69.69,0,0,1,.25-.07l.24,0a.5.5,0,0,0,.41-.45c.07-.67.1-2.09.1-4.28v-2a.29.29,0,0,0-.11-.27,3.4,3.4,0,0,0-.78,0,9.28,9.28,0,0,0-1,0,2.12,2.12,0,0,0-.44.08.53.53,0,0,0-.16.17,1.13,1.13,0,0,0-.15.29c0,.11-.06.19-.08.26s-.09.26-.2.26-.12-.06-.12-.19a5.17,5.17,0,0,1,.06-.82c0-.25.05-.39.05-.43a.23.23,0,0,0,0-.07s0,0,0-.06a.07.07,0,0,1,0,0l0,0a.08.08,0,0,1,0,0l0,0Z"/><path class="cls-1" d="M132.9,99.22V97.47a5.79,5.79,0,0,0,0-.8.54.54,0,0,0-.28-.44,1.12,1.12,0,0,0-.5-.16c-.17,0-.25-.07-.25-.18s.1-.16.3-.16l1.21,0,.94,0c.19,0,.29,0,.29.16s-.16.16-.49.31-.34.53-.34,1.3l0,4.19A2.51,2.51,0,0,0,134,103c.16.26.34.39.53.39h.21a.28.28,0,0,1,.15,0,.14.14,0,0,1,.07.13c0,.11-.09.16-.26.16l-1,0-1.18.06c-.32,0-.48-.06-.48-.17s.11-.17.33-.2a.46.46,0,0,0,.27-.15.59.59,0,0,0,.18-.29c0-.11,0-.57.08-1.37s.05-1.38.05-1.74Z"/><path class="cls-1" d="M135.75,99.93a4.52,4.52,0,0,1,1.08-3.12,3.88,3.88,0,0,1,3.06-1.22,4.53,4.53,0,0,1,1.65.29,3.36,3.36,0,0,1,1.17.69,4,4,0,0,1,.72,1,3.84,3.84,0,0,1,.5,1.81,5.43,5.43,0,0,1-.57,2.6,3.77,3.77,0,0,1-3.62,2,4,4,0,0,1-2.2-.59,3.63,3.63,0,0,1-1.36-1.48A4.42,4.42,0,0,1,135.75,99.93Zm.94-.58a4.83,4.83,0,0,0,.5,2.06,4.43,4.43,0,0,0,.65,1,3,3,0,0,0,1,.73,2.9,2.9,0,0,0,1.28.29,2.83,2.83,0,0,0,1.56-.49,3,3,0,0,0,1.41-2.59,4.66,4.66,0,0,0-1-3.19,3.27,3.27,0,0,0-2.52-1.13,2.7,2.7,0,0,0-2,.83A3.34,3.34,0,0,0,136.69,99.35Z"/><path class="cls-1" d="M145.92,103.79l-.91,0c-.16,0-.23-.06-.23-.18s0-.11.14-.13a1.18,1.18,0,0,0,.34-.17.87.87,0,0,0,.29-.49c0-.22.11-.94.18-2.17s.09-2.13.09-2.69a2.85,2.85,0,0,0-.25-1.32,1,1,0,0,0-.84-.55c-.09,0-.14-.06-.14-.17a.19.19,0,0,1,.08-.13.29.29,0,0,1,.19-.06h.41l.52,0a.56.56,0,0,1,.23.06.32.32,0,0,1,.15.12.87.87,0,0,0,.11.17c.07.07.15.18.26.31a4.68,4.68,0,0,1,.29.37q1.46,2,3.89,4.83l.16.19.13.15.08.1a.19.19,0,0,0,.12.07c.07,0,.1-.23.1-.7v-1.32l0-2.32v-.08c0-.7-.11-1.14-.34-1.33a.77.77,0,0,0-.22-.13l-.24-.06c-.29-.06-.44-.15-.44-.25s.07-.17.2-.17h1l1,0a.49.49,0,0,1,.25,0,.13.13,0,0,1,.07.12.14.14,0,0,1-.06.12,1.34,1.34,0,0,1-.31.14c-.24.13-.35.56-.35,1.28v.43l-.12,5.6v.23c0,.17-.05.26-.15.26a.23.23,0,0,1-.17-.08c-2.37-2.91-3.78-4.63-4.24-5.18a4.33,4.33,0,0,0-.77-.82c-.07,0-.11.31-.11.92s0,1.34,0,2.17,0,1.27,0,1.35a1.45,1.45,0,0,0,.16.77.56.56,0,0,0,.36.3l.36.08c.11,0,.17.08.17.16a.22.22,0,0,1,0,.15.23.23,0,0,1-.13,0Z"/><path class="cls-1" d="M154.35,103.77l-.92,0c-.21,0-.31,0-.31-.13a.21.21,0,0,1,.16-.22,1.24,1.24,0,0,0,.6-.6c.17-.32.6-1.26,1.29-2.85L157,95.83a.57.57,0,0,1,.14-.21.26.26,0,0,1,.17-.05.17.17,0,0,1,.14.05,2.08,2.08,0,0,1,.12.3c.06.17.1.31.13.4s.09.23.16.44.18.51.34.92.52,1.3,1.08,2.67.88,2.16,1,2.35a1.35,1.35,0,0,0,.35.47.78.78,0,0,0,.39.22l.28,0a.18.18,0,0,1,.11.18c0,.11-.1.17-.29.17l-1-.07-1,0a1.74,1.74,0,0,1-.42,0,.12.12,0,0,1-.09-.12.15.15,0,0,1,.09-.14.36.36,0,0,1,.18-.07.33.33,0,0,0,.18-.1.38.38,0,0,0,.08-.28,4.49,4.49,0,0,0-.26-1,10,10,0,0,0-.45-1.13.45.45,0,0,0-.44-.2l-1.3,0h-.56a1.94,1.94,0,0,0-.61,0,.45.45,0,0,0-.2.24c-.05.12-.13.29-.23.5s-.17.37-.2.45-.08.19-.13.32a1.42,1.42,0,0,0-.14.56.53.53,0,0,0,.12.37.48.48,0,0,0,.27.16c.27,0,.4.09.4.21a.21.21,0,0,1,0,.12s-.07,0-.15,0Zm2-5.21a10,10,0,0,0-.51,1.39c0,.09,0,.15.09.17a1.87,1.87,0,0,0,.45,0h.33l1,0c.28,0,.42,0,.42-.16a8.88,8.88,0,0,0-.53-1.42c-.35-.83-.57-1.25-.66-1.25A4.19,4.19,0,0,0,156.32,98.56Z"/><path class="cls-1" d="M163,99.75l0-2c0-.2,0-.55,0-1a.62.62,0,0,0-.26-.51,1,1,0,0,0-.49-.19.47.47,0,0,1-.25,0,.22.22,0,0,1,0-.12c0-.14.09-.21.28-.21l.29,0,.93,0,1.13,0c.12,0,.18,0,.18.11a.19.19,0,0,1-.13.21,1.28,1.28,0,0,1-.28.07c-.11,0-.21.09-.3.25a1.43,1.43,0,0,0-.17.68c0,.3,0,1.13,0,2.48s0,2.11,0,2.27v.45c0,.54.08.84.26.9a1.34,1.34,0,0,0,.45.08,7.06,7.06,0,0,0,2.31-.27,1.33,1.33,0,0,0,.77-.52c.1-.19.18-.28.25-.28s.13.06.13.19a1.47,1.47,0,0,1-.46,1,1.25,1.25,0,0,1-.8.49c-.52,0-1.1,0-1.74,0l-1.21-.06-1.33.09c-.21,0-.31,0-.31-.13a.15.15,0,0,1,.06-.13.2.2,0,0,1,.16-.06.52.52,0,0,0,.28-.13,1,1,0,0,0,.26-.56,11.19,11.19,0,0,0,.08-1.64Z"/><path class="cls-1" d="M172,98.89l0-1.63a1.88,1.88,0,0,0-.14-.86.88.88,0,0,0-.65-.31q-.24,0-.24-.21a.11.11,0,0,1,.07-.12.42.42,0,0,1,.18,0l1.21,0,1,0c.15,0,.23,0,.23.16s0,.11-.08.12l-.18,0a.45.45,0,0,0-.22.08q-.27.15-.27,1V100a10.7,10.7,0,0,0,.06,1.46q.08.35.15.63a1.65,1.65,0,0,0,.21.46,4.34,4.34,0,0,0,.31.37,1.31,1.31,0,0,0,.43.32,3.27,3.27,0,0,0,1.32.25,3.39,3.39,0,0,0,1.61-.27,3.52,3.52,0,0,0,.44-.36,1.6,1.6,0,0,0,.39-.59,5.88,5.88,0,0,0,.33-2.13V97.7a5.27,5.27,0,0,0,0-.62,2,2,0,0,0-.1-.5.8.8,0,0,0-.23-.38.93.93,0,0,0-.31-.13l-.28,0c-.07,0-.11,0-.11-.1s.07-.18.22-.18l.82,0,.91,0c.15,0,.22.05.22.15s-.07.13-.23.23a.79.79,0,0,0-.28.25,1.76,1.76,0,0,0-.12.75v.76a23.47,23.47,0,0,1-.17,3.33,4.15,4.15,0,0,1-.52,1.67,2.78,2.78,0,0,1-2.54,1.1,3.63,3.63,0,0,1-2.56-.72,2.45,2.45,0,0,1-.73-1.39,17.94,17.94,0,0,1-.14-2.79Z"/><path class="cls-1" d="M181.14,103.79l-.91,0q-.24,0-.24-.18c0-.07,0-.11.14-.13a1,1,0,0,0,.34-.17.77.77,0,0,0,.29-.49,17.83,17.83,0,0,0,.19-2.17c.06-1.24.09-2.13.09-2.69a2.85,2.85,0,0,0-.25-1.32,1,1,0,0,0-.84-.55c-.09,0-.14-.06-.14-.17a.19.19,0,0,1,.08-.13.29.29,0,0,1,.19-.06h.41l.52,0a.52.52,0,0,1,.22.06q.14.06.15.12l.12.17c.07.07.15.18.26.31a4.68,4.68,0,0,1,.29.37q1.45,2,3.89,4.83a2.31,2.31,0,0,0,.16.19.64.64,0,0,1,.12.15l.09.1c.05,0,.08.07.11.07s.11-.23.11-.7v-1.32l0-2.32v-.08a1.81,1.81,0,0,0-.34-1.33.77.77,0,0,0-.22-.13l-.24-.06c-.3-.06-.44-.15-.44-.25s.07-.17.2-.17h1l1,0a.49.49,0,0,1,.25,0,.13.13,0,0,1,.07.12.14.14,0,0,1-.06.12,1.34,1.34,0,0,1-.31.14c-.24.13-.36.56-.36,1.28v.43l-.11,5.6v.23c0,.17-.05.26-.15.26a.25.25,0,0,1-.18-.08c-2.36-2.91-3.78-4.63-4.24-5.18a4.52,4.52,0,0,0-.76-.82c-.07,0-.11.31-.11.92s0,1.34,0,2.17,0,1.27,0,1.35a1.45,1.45,0,0,0,.16.77.56.56,0,0,0,.36.3l.36.08c.11,0,.16.08.16.16a.24.24,0,0,1,0,.15.24.24,0,0,1-.14,0Z"/><path class="cls-1" d="M189.55,99.22V97.47a8,8,0,0,0,0-.8.53.53,0,0,0-.29-.44,1.09,1.09,0,0,0-.5-.16q-.24,0-.24-.18c0-.11.1-.16.3-.16l1.21,0,.94,0c.19,0,.29,0,.29.16s-.17.16-.5.31-.34.53-.34,1.3l0,4.19a2.53,2.53,0,0,0,.25,1.33c.17.26.35.39.53.39h.21a.28.28,0,0,1,.15,0,.14.14,0,0,1,.08.13c0,.11-.09.16-.27.16l-1,0-1.17.06c-.32,0-.48-.06-.48-.17s.11-.17.33-.2a.53.53,0,0,0,.27-.15.51.51,0,0,0,.17-.29,11.94,11.94,0,0,0,.09-1.37c0-.8.05-1.38.05-1.74Z"/><path class="cls-1" d="M199.18,95.74l1,0c.13,0,.2,0,.2.16s-.08.16-.24.23a.91.91,0,0,0-.22.2,1.06,1.06,0,0,0-.22.38l-2.39,5.75c-.17.41-.32.77-.44,1.08s-.19.49-.21.53a.1.1,0,0,1-.09.06c-.13,0-.29-.26-.47-.76s-.49-1.23-.9-2.17-.73-1.68-.95-2.21l-.48-1.17c-.09-.25-.18-.47-.27-.67a2.47,2.47,0,0,0-.35-.67,1,1,0,0,0-.36-.28.82.82,0,0,0-.32-.09c-.2,0-.3,0-.3-.2s.1-.16.3-.16l1.18,0,.7,0a1.53,1.53,0,0,1,.3,0,.11.11,0,0,1,0,.1s0,.09-.11.13c-.22.12-.33.24-.33.37a1.22,1.22,0,0,0,0,.34,3.72,3.72,0,0,0,.16.47l.27.63c.09.21.23.55.44,1s.4.93.59,1.39a7.43,7.43,0,0,0,1.07,2.19,9.65,9.65,0,0,0,.61-1.37c.38-.91.75-1.87,1.11-2.86a9.63,9.63,0,0,0,.55-1.73.37.37,0,0,0-.13-.32.68.68,0,0,0-.26-.12c-.25,0-.38-.09-.38-.18s0-.08,0-.09a.42.42,0,0,1,.19,0Z"/><path class="cls-1" d="M201.93,99.75l0-2c0-.2,0-.55,0-1a.62.62,0,0,0-.27-.51,1,1,0,0,0-.6-.19c-.12,0-.17-.07-.17-.21s.1-.16.3-.16l.29,0,2.61,0,2.14,0c.13,0,.2.09.2.26a3.83,3.83,0,0,1-.07.45,4,4,0,0,0-.06.59c0,.24,0,.36-.17.36s-.16-.09-.16-.27a.89.89,0,0,0-.18-.52.56.56,0,0,0-.45-.26c-.64,0-1.14-.08-1.48-.08h-.28a1.4,1.4,0,0,0-.64.08,8.36,8.36,0,0,0-.16,2.5c0,.38.07.57.2.58h1.05a5,5,0,0,0,.86,0,.69.69,0,0,0,.63-.58c0-.13.07-.2.14-.2s.11,0,.13,0a.37.37,0,0,1,0,.14l-.09,1.19,0,.69c0,.19,0,.29-.08.29s-.19-.09-.24-.27-.18-.51-.26-.56a1.46,1.46,0,0,0-.78-.16h-1.19c-.29,0-.44.07-.44.22l0,1.63v.45c0,.54.09.84.26.9a1.43,1.43,0,0,0,.46.08,7.17,7.17,0,0,0,2.32-.27,1.45,1.45,0,0,0,.77-.52c.08-.19.16-.28.23-.28s.13.06.13.19a1.47,1.47,0,0,1-.46,1,1.23,1.23,0,0,1-.8.49c-.51,0-1.09,0-1.74,0l-1.2-.06-1.46.1c-.15,0-.22,0-.22-.11v-.14s0-.07.1-.09a1.08,1.08,0,0,0,.37-.13.71.71,0,0,0,.32-.52,9.93,9.93,0,0,0,.08-1.67Z"/><path class="cls-1" d="M208.56,98.92V97a1,1,0,0,0-.17-.64.52.52,0,0,0-.35-.25l-.36-.07c-.11,0-.16-.09-.16-.16s.1-.18.31-.18h1.77l1.07,0a2.62,2.62,0,0,1,1.65.52,1.63,1.63,0,0,1,.69,1.38,2.32,2.32,0,0,1-.21,1,1.71,1.71,0,0,1-.46.63c-.17.12-.32.24-.46.33s-.21.16-.21.19a8.32,8.32,0,0,0,.9,1.46q.9,1.33,1.23,1.71a1.21,1.21,0,0,0,1,.53c.1,0,.15,0,.15.14a.21.21,0,0,1-.13.22,2,2,0,0,1-.64.06,1.77,1.77,0,0,1-.94-.26,9.65,9.65,0,0,1-1.92-2.72c-.34-.59-.6-.88-.79-.88h-.87a.15.15,0,0,0-.16.11,4.08,4.08,0,0,0,0,.67v.92l0,.6v.1a1.1,1.1,0,0,0,.2.72.74.74,0,0,0,.45.29l.46.09c.13,0,.2.09.2.17s-.06.18-.19.18l-1.53-.08-1.18,0c-.15,0-.22-.06-.22-.18s.15-.21.45-.25c.11,0,.21-.1.31-.25a1.24,1.24,0,0,0,.14-.64Zm.88-1.22c0,.78,0,1.26,0,1.44a.5.5,0,0,0,.07.33,1,1,0,0,0,.46.1h.42A1.46,1.46,0,0,0,212.1,98a1.91,1.91,0,0,0-.52-1.28,2,2,0,0,0-1.57-.57c-.26,0-.42.07-.48.22a3.44,3.44,0,0,0-.09,1Z"/><path class="cls-1" d="M219.82,96l.25-.09c.09,0,.14,0,.16.09.15.91.22,1.45.22,1.61s0,.24-.15.24-.12-.08-.18-.24a3.13,3.13,0,0,0-.22-.45l-.17-.26-.28-.27a1.9,1.9,0,0,0-1.32-.54,1.92,1.92,0,0,0-1.2.34,1,1,0,0,0-.45.88,1.33,1.33,0,0,0,.27.87,1.62,1.62,0,0,0,.7.51c.29.12.6.23.92.34a4.39,4.39,0,0,1,1.91,1.12,1.76,1.76,0,0,1,.43,1.21,2.51,2.51,0,0,1-.72,1.89,2.46,2.46,0,0,1-1.77.69,6.39,6.39,0,0,1-1.19-.08,3,3,0,0,1-.92-.35,2,2,0,0,1-.33-.88,5.87,5.87,0,0,1-.19-1c0-.13,0-.2.14-.2a.17.17,0,0,1,.18.12,3.24,3.24,0,0,0,.93,1.42,2.14,2.14,0,0,0,1.39.47,1.86,1.86,0,0,0,1.31-.45,1.54,1.54,0,0,0,.49-1.17,1.26,1.26,0,0,0-.34-.89,2,2,0,0,0-.76-.52,13,13,0,0,1-2.16-.91,1.87,1.87,0,0,1-1-1.65,2.06,2.06,0,0,1,.69-1.63,2.59,2.59,0,0,1,1.79-.61,3,3,0,0,1,1,.19Z"/><path class="cls-1" d="M222.74,99.22V97.47a5.79,5.79,0,0,0,0-.8.54.54,0,0,0-.28-.44,1.12,1.12,0,0,0-.5-.16c-.17,0-.25-.07-.25-.18s.1-.16.3-.16l1.21,0,.94,0c.2,0,.29,0,.29.16s-.16.16-.49.31-.34.53-.34,1.3l0,4.19a2.51,2.51,0,0,0,.26,1.33c.16.26.34.39.53.39h.21a.28.28,0,0,1,.15,0,.14.14,0,0,1,.07.13c0,.11-.08.16-.26.16l-1,0-1.18.06c-.32,0-.48-.06-.48-.17s.11-.17.33-.2a.46.46,0,0,0,.27-.15.59.59,0,0,0,.18-.29c0-.11,0-.57.08-1.37s.05-1.38.05-1.74Z"/><path class="cls-1" d="M225.8,95.64l.87,0c.49,0,1.45,0,2.89,0a25.1,25.1,0,0,0,2.6-.07.18.18,0,0,1,.16.07.34.34,0,0,1,0,.12l.06.92a1.27,1.27,0,0,1,0,.36c0,.05-.07.07-.14.07s-.1-.08-.14-.23a1.32,1.32,0,0,0-.13-.36c-.1-.19-.41-.29-.93-.29h-1.39c-.17,0-.27,0-.31.11a1.71,1.71,0,0,0-.06.61v.56l0,4.14v.74a.94.94,0,0,0,.14.63,1,1,0,0,0,.32.22,1.1,1.1,0,0,0,.28.09c.2,0,.3.08.3.2s0,.14,0,.16a.43.43,0,0,1-.2,0l-1.19-.09-1.09.08c-.26,0-.4-.06-.4-.18s0-.13.07-.15a.63.63,0,0,1,.25-.07l.24,0a.5.5,0,0,0,.41-.45c.07-.67.1-2.09.1-4.28v-2q0-.21-.12-.27a3.27,3.27,0,0,0-.78,0,9.08,9.08,0,0,0-1,0,2.12,2.12,0,0,0-.44.08.53.53,0,0,0-.16.17,1.13,1.13,0,0,0-.15.29c0,.11-.06.19-.08.26s-.09.26-.2.26-.12-.06-.12-.19a6.81,6.81,0,0,1,0-.82c0-.25.06-.39.06-.43a.23.23,0,0,0,0-.07s0,0,0-.06,0,0,0,0l0,0,0,0,.06,0Z"/><path class="cls-1" d="M236.26,102.76l0-2.3a1.83,1.83,0,0,0-.28-.93c-.17-.28-.4-.64-.68-1.07l-.74-1.16a5.23,5.23,0,0,0-.58-.8,1.26,1.26,0,0,0-.42-.32,1,1,0,0,0-.37-.06c-.15,0-.23,0-.23-.13a.16.16,0,0,1,.12-.17,3.06,3.06,0,0,1,.54,0l.62,0h.91c.36,0,.54,0,.54.13s-.08.16-.23.21-.22.12-.22.19a.75.75,0,0,0,.07.29,1.4,1.4,0,0,0,.14.3l.21.33.33.54c.13.22.32.51.58.88a2.31,2.31,0,0,0,.45.56s.09,0,.16-.13.15-.24.26-.44l.25-.42.2-.31c.08-.13.14-.22.17-.28l.14-.24a2.54,2.54,0,0,0,.14-.25l.1-.21a.78.78,0,0,0,.11-.34c0-.27-.17-.43-.5-.47-.15,0-.24-.06-.26-.1a.19.19,0,0,1,0-.12c0-.09.1-.13.3-.13h1.58c.34,0,.52,0,.52.17s0,0-.06.08l-.19.09a.74.74,0,0,0-.21.13A8.47,8.47,0,0,0,238.43,98q-.85,1.36-1,1.56a1,1,0,0,0-.19.46,6.72,6.72,0,0,0,0,.93v1.58a1.21,1.21,0,0,0,.12.59.55.55,0,0,0,.23.26.78.78,0,0,0,.21,0H238c.05,0,.09,0,.11,0a.19.19,0,0,1,0,.13.12.12,0,0,1-.06.12.31.31,0,0,1-.2,0h-1.07l-1.18,0c-.2,0-.3,0-.3-.11s0-.13.06-.15a.43.43,0,0,1,.2-.06.49.49,0,0,0,.2,0A.65.65,0,0,0,236.26,102.76Z"/><path class="cls-1" d="M40.42,112.15A4.56,4.56,0,0,1,41.5,109a3.88,3.88,0,0,1,3.06-1.21,4.55,4.55,0,0,1,1.66.28,3.46,3.46,0,0,1,1.17.7,3.88,3.88,0,0,1,.71.94,3.77,3.77,0,0,1,.51,1.81,5.47,5.47,0,0,1-.57,2.61,3.79,3.79,0,0,1-3.63,2,4,4,0,0,1-2.2-.59,3.54,3.54,0,0,1-1.35-1.48A4.36,4.36,0,0,1,40.42,112.15Zm.94-.57a4.74,4.74,0,0,0,.51,2.06,4.56,4.56,0,0,0,.64,1,3.16,3.16,0,0,0,1,.74,2.87,2.87,0,0,0,1.28.29,3,3,0,0,0,1.56-.49,2.94,2.94,0,0,0,1.21-1.48,3.1,3.1,0,0,0,.2-1.12,4.6,4.6,0,0,0-1-3.18,3.21,3.21,0,0,0-2.51-1.14,2.74,2.74,0,0,0-2,.84A3.38,3.38,0,0,0,41.36,111.58Z"/><path class="cls-1" d="M49.43,108.1a.17.17,0,0,1,.09-.14.38.38,0,0,1,.19,0H50l.83,0c.38,0,.88,0,1.49,0l2.43-.06q.18,0,.18.27a4,4,0,0,1-.06.53,5.4,5.4,0,0,0-.09.62c0,.15-.07.23-.17.23s-.14-.07-.14-.22c0-.5-.16-.76-.49-.79-1.08-.09-1.75-.13-2-.13s-.44,0-.51.12a.79.79,0,0,0-.12.51v.09c0,.41,0,1,0,1.89,0,.37.07.56.2.57h1a5.34,5.34,0,0,0,.86,0,.87.87,0,0,0,.34-.14.51.51,0,0,0,.18-.18A.48.48,0,0,0,54,111a.56.56,0,0,1,.05-.18s.07,0,.13,0,.1,0,.12,0a.31.31,0,0,1,0,.13c0,.06,0,.2,0,.41a4,4,0,0,0-.05.55l.08.92a.42.42,0,0,1,0,.24.13.13,0,0,1-.11,0c-.12,0-.2-.1-.23-.29a.78.78,0,0,0,0-.35.62.62,0,0,0-.22-.21,2.37,2.37,0,0,0-.5-.09l-.5,0h-.93c-.29,0-.44.07-.44.22l0,1.63v.45a2.28,2.28,0,0,0,0,.45,1.17,1.17,0,0,0,.25.48.68.68,0,0,0,.55.25c.22,0,.34.07.34.2a.19.19,0,0,1-.1.16.46.46,0,0,1-.23.06l-1-.09-1.3.06q-.21,0-.21-.12c0-.1,0-.16,0-.18l.41-.17c.18-.07.3-.27.34-.61s.08-1.38.08-3l0-2v-.66a1,1,0,0,0-.5-1,.78.78,0,0,0-.35-.07C49.5,108.26,49.43,108.21,49.43,108.1Z"/><path class="cls-1" d="M62.57,108.19l.24-.09c.1,0,.15,0,.16.09.15.91.23,1.45.23,1.61s-.05.25-.15.25-.13-.08-.19-.25a2.56,2.56,0,0,0-.21-.44,1,1,0,0,0-.18-.26l-.28-.28a1.86,1.86,0,0,0-1.32-.54,1.91,1.91,0,0,0-1.19.34,1.06,1.06,0,0,0-.45.88,1.4,1.4,0,0,0,.26.88,2,2,0,0,0,.7.51c.3.12.6.23.92.33A4.44,4.44,0,0,1,63,112.35a1.77,1.77,0,0,1,.43,1.21,2.49,2.49,0,0,1-.72,1.88,2.44,2.44,0,0,1-1.78.7,6.21,6.21,0,0,1-1.18-.09,3,3,0,0,1-.92-.34c-.1-.06-.21-.36-.34-.88a7.23,7.23,0,0,1-.19-1c0-.14.05-.2.15-.2a.16.16,0,0,1,.17.11,3.47,3.47,0,0,0,.93,1.43,2.16,2.16,0,0,0,1.4.46,1.84,1.84,0,0,0,1.3-.45,1.48,1.48,0,0,0,.49-1.17,1.27,1.27,0,0,0-.33-.89,2,2,0,0,0-.76-.51,13.65,13.65,0,0,1-2.16-.92,1.86,1.86,0,0,1-1-1.64,2.09,2.09,0,0,1,.7-1.64,2.62,2.62,0,0,1,1.79-.6,3.3,3.3,0,0,1,1,.18Z"/><path class="cls-1" d="M64.69,112.31a5.45,5.45,0,0,1,.44-2.21,3.8,3.8,0,0,1,1.39-1.59,4,4,0,0,1,2.22-.6,4.75,4.75,0,0,1,1.32.2,7,7,0,0,1,1.06.41l.39.21a.19.19,0,0,0,.11,0,.22.22,0,0,1,.12-.06.16.16,0,0,1,.1,0s.06.11.06.25,0,.33,0,.58,0,.45.07.6a2.12,2.12,0,0,1,0,.29c0,.13,0,.2-.13.2s-.13,0-.18-.16a3.27,3.27,0,0,0-3-2.06,2.86,2.86,0,0,0-2.19.91,3.29,3.29,0,0,0-.86,2.36,4.87,4.87,0,0,0,.79,2.79,2.86,2.86,0,0,0,1.12.93,3.84,3.84,0,0,0,1.64.34,3,3,0,0,0,2.59-1.7.17.17,0,0,1,.16-.08c.07,0,.1,0,.1.14a1.63,1.63,0,0,1,0,.35c0,.14,0,.3-.09.47a2,2,0,0,0-.06.31.32.32,0,0,1-.18.2c-.38.2-.68.35-.89.44a4.36,4.36,0,0,1-1.83.39,5.56,5.56,0,0,1-1.71-.24,3.93,3.93,0,0,1-1.23-.62,3.66,3.66,0,0,1-.8-.91A4,4,0,0,1,64.69,112.31Z"/><path class="cls-1" d="M74.26,111.44V109.7a5.7,5.7,0,0,0,0-.8.56.56,0,0,0-.29-.45,1,1,0,0,0-.49-.16c-.17,0-.25-.06-.25-.17s.1-.17.3-.17l1.21,0,.94,0c.19,0,.29,0,.29.15s-.16.17-.49.31-.34.53-.34,1.3l0,4.19a2.55,2.55,0,0,0,.26,1.34.67.67,0,0,0,.52.38h.22a.42.42,0,0,1,.15,0,.14.14,0,0,1,.07.13c0,.11-.09.16-.26.16l-1,0-1.18,0c-.32,0-.48,0-.48-.17s.11-.17.33-.2a.44.44,0,0,0,.27-.14.67.67,0,0,0,.18-.3c0-.11.05-.56.08-1.37s.05-1.38.05-1.73Z"/><path class="cls-1" d="M77.88,112l0-2c0-.2,0-.54,0-1a.62.62,0,0,0-.27-.51,1.1,1.1,0,0,0-.6-.19c-.11,0-.17-.07-.17-.2s.1-.16.3-.16l.29,0,2.61.06,2.14,0c.13,0,.2.09.2.26s0,.2-.06.45a3.15,3.15,0,0,0-.07.6c0,.24-.05.36-.16.36s-.17-.09-.17-.27a.89.89,0,0,0-.18-.53.59.59,0,0,0-.45-.26c-.64,0-1.13-.07-1.48-.07h-.28a1.47,1.47,0,0,0-.64.07,8.89,8.89,0,0,0-.16,2.51c0,.37.07.57.21.57h1a5.34,5.34,0,0,0,.86,0,.7.7,0,0,0,.63-.59c0-.13.07-.19.14-.19a.19.19,0,0,1,.13,0,.4.4,0,0,1,0,.15l-.09,1.19,0,.69c0,.19,0,.28-.08.28s-.18-.09-.23-.27a1.14,1.14,0,0,0-.27-.55,1.37,1.37,0,0,0-.78-.16H79.17c-.29,0-.44.07-.44.21l0,1.63v.45c0,.55.09.85.26.9a1.48,1.48,0,0,0,.46.09,7.17,7.17,0,0,0,2.32-.27,1.46,1.46,0,0,0,.77-.52c.08-.19.16-.29.23-.29s.13.07.13.2a1.45,1.45,0,0,1-.46,1,1.23,1.23,0,0,1-.8.5q-.77,0-1.74-.06c-.64,0-1,0-1.2,0l-1.46.1c-.15,0-.22,0-.22-.12v-.13c0-.05,0-.08.11-.09a1.63,1.63,0,0,0,.36-.14.72.72,0,0,0,.33-.52,11,11,0,0,0,.08-1.66Z"/><path class="cls-1" d="M84.78,116l-.91,0q-.24,0-.24-.18c0-.07.05-.11.14-.13a.94.94,0,0,0,.34-.18.82.82,0,0,0,.29-.48,16.92,16.92,0,0,0,.18-2.18c.07-1.23.1-2.13.1-2.68a2.84,2.84,0,0,0-.26-1.32,1,1,0,0,0-.83-.55.15.15,0,0,1-.14-.17.16.16,0,0,1,.07-.13.32.32,0,0,1,.2-.06h.4l.53,0a.55.55,0,0,1,.22.07c.09,0,.14.08.15.11l.12.17.26.31.29.37c1,1.34,2.26,3,3.89,4.84l.15.18.13.15.08.1s.09.08.12.08.11-.24.11-.7v-1.33l0-2.32v-.08a1.75,1.75,0,0,0-.35-1.32.63.63,0,0,0-.21-.13l-.25-.07c-.29-.06-.43-.14-.43-.25s.06-.16.2-.16h1l1,0a.67.67,0,0,1,.25,0,.13.13,0,0,1,.07.12.14.14,0,0,1-.07.13,1.23,1.23,0,0,1-.31.13c-.23.14-.35.57-.35,1.28v.43l-.12,5.61v.22c0,.18,0,.26-.15.26a.23.23,0,0,1-.17-.07c-2.36-2.91-3.78-4.64-4.24-5.18a4.87,4.87,0,0,0-.76-.83c-.08,0-.11.31-.11.93s0,1.33,0,2.16,0,1.28,0,1.35a1.5,1.5,0,0,0,.17.78.56.56,0,0,0,.36.3l.36.07c.11,0,.16.08.16.16s0,.13,0,.15-.07,0-.13,0Z"/><path class="cls-1" d="M92.38,112.31a5.29,5.29,0,0,1,.45-2.21,3.73,3.73,0,0,1,1.39-1.59,4,4,0,0,1,2.22-.6,4.63,4.63,0,0,1,1.31.2,6.21,6.21,0,0,1,1.06.41l.4.21a.19.19,0,0,0,.11,0,.22.22,0,0,1,.12-.06.19.19,0,0,1,.1,0s0,.11.06.25,0,.33,0,.58,0,.45.07.6,0,.26,0,.29,0,.2-.13.2-.12,0-.18-.16a3.25,3.25,0,0,0-3-2.06,2.88,2.88,0,0,0-2.2.91,3.29,3.29,0,0,0-.85,2.36,4.8,4.8,0,0,0,.79,2.79,2.83,2.83,0,0,0,1.11.93,3.86,3.86,0,0,0,1.65.34,3,3,0,0,0,2.59-1.7.17.17,0,0,1,.16-.08c.06,0,.1,0,.1.14a2.68,2.68,0,0,1,0,.35c0,.14-.06.3-.09.47l-.07.31a.28.28,0,0,1-.17.2c-.38.2-.68.35-.9.44a4.35,4.35,0,0,1-1.82.39A5.63,5.63,0,0,1,95,116a3.87,3.87,0,0,1-1.22-.62,3.47,3.47,0,0,1-.8-.91A4,4,0,0,1,92.38,112.31Z"/><path class="cls-1" d="M101.92,112l0-2c0-.2,0-.54,0-1a.62.62,0,0,0-.27-.51,1.1,1.1,0,0,0-.6-.19c-.12,0-.17-.07-.17-.2s.1-.16.3-.16l.29,0,2.61.06,2.14,0c.13,0,.2.09.2.26s0,.2-.06.45a3.15,3.15,0,0,0-.07.6c0,.24,0,.36-.17.36s-.16-.09-.16-.27a.89.89,0,0,0-.18-.53.59.59,0,0,0-.45-.26c-.64,0-1.14-.07-1.48-.07h-.28a1.47,1.47,0,0,0-.64.07,8.46,8.46,0,0,0-.16,2.51c0,.37.07.57.2.57H104a5.34,5.34,0,0,0,.86,0,.7.7,0,0,0,.63-.59c0-.13.07-.19.14-.19a.19.19,0,0,1,.13,0,.4.4,0,0,1,0,.15l-.09,1.19,0,.69c0,.19,0,.28-.08.28s-.19-.09-.23-.27-.19-.5-.27-.55a1.37,1.37,0,0,0-.78-.16h-1.19c-.29,0-.44.07-.44.21l0,1.63v.45c0,.55.09.85.26.9a1.48,1.48,0,0,0,.46.09,7.17,7.17,0,0,0,2.32-.27,1.51,1.51,0,0,0,.77-.52c.08-.19.16-.29.23-.29s.13.07.13.2a1.45,1.45,0,0,1-.46,1,1.25,1.25,0,0,1-.8.5q-.77,0-1.74-.06c-.64,0-1.05,0-1.2,0l-1.46.1c-.15,0-.22,0-.22-.12v-.13c0-.05,0-.08.1-.09a1.49,1.49,0,0,0,.37-.14.69.69,0,0,0,.32-.52,9.79,9.79,0,0,0,.08-1.66Z"/><path class="cls-1" d="M119.26,115.71l.38,0c.09,0,.14,0,.14.1s-.1.22-.31.3a1.75,1.75,0,0,1-.72.13,2.74,2.74,0,0,1-.81-.12,2.31,2.31,0,0,1-.65-.29,3,3,0,0,1-.47-.33,3.73,3.73,0,0,1-.33-.29q-.12-.12-.15-.12s-.08,0-.16.12l-.33.3a4.5,4.5,0,0,1-.49.35,3.47,3.47,0,0,1-1.83.41,4,4,0,0,1-1.37-.23,3.38,3.38,0,0,1-1-.54,2.39,2.39,0,0,1-.6-.88,3.3,3.3,0,0,1-.26-1.34,2.62,2.62,0,0,1,.13-.8,2.08,2.08,0,0,1,.34-.7,1.75,1.75,0,0,1,.54-.47,2.21,2.21,0,0,1,.53-.22c.13,0,.2-.06.2-.08a1,1,0,0,0-.13-.19,2.06,2.06,0,0,1-.26-.5,2.24,2.24,0,0,1-.13-.76,1.24,1.24,0,0,1,.62-1.13,2.66,2.66,0,0,1,1.39-.38,1.87,1.87,0,0,1,.71.13,2.28,2.28,0,0,0,.37.13l.24,0c.11,0,.17.08.17.26l0,.77a3.06,3.06,0,0,1,0,.39.08.08,0,0,1-.09.07s-.13-.07-.24-.2l-.34-.45a2,2,0,0,0-.49-.45,1.28,1.28,0,0,0-.71-.2.81.81,0,0,0-.66.28.82.82,0,0,0-.25.58,1.46,1.46,0,0,0,.3.74,5.63,5.63,0,0,0,.6.79c.2.23.53.58,1,1.06s.93.94,1.43,1.4a4.5,4.5,0,0,0,.83.68s.1,0,.14-.11a1.34,1.34,0,0,0,.15-.74,2.15,2.15,0,0,0-.11-.78.87.87,0,0,0-.2-.32l-.23-.13a.81.81,0,0,0-.26-.09.31.31,0,0,1-.16,0,.11.11,0,0,1-.06-.11.12.12,0,0,1,.05-.11.88.88,0,0,1,.22,0l1.6,0c.13,0,.2,0,.2.15s-.07.14-.2.18a.32.32,0,0,0-.15.14.58.58,0,0,0-.08.28l0,.34a3.92,3.92,0,0,1-.18,1c-.07.19-.14.35-.19.46a1,1,0,0,0-.08.2c0,.07.21.25.64.53a14.16,14.16,0,0,0,1.29.77A1,1,0,0,0,119.26,115.71Zm-7.5-1.17a2.54,2.54,0,0,0,1,.68,3.21,3.21,0,0,0,1.24.26,3,3,0,0,0,1.05-.16,2.77,2.77,0,0,0,.67-.33c.15-.11.23-.19.23-.23s-.1-.12-.28-.27-.49-.41-.92-.8-.78-.72-1-1l-.87-.92-.35-.39-.08-.08-.07,0a.12.12,0,0,0-.08,0,1.08,1.08,0,0,0-.76.48,1.79,1.79,0,0,0-.41,1.23A2.54,2.54,0,0,0,111.76,114.54Z"/><path class="cls-1" d="M123.07,107.86l.88,0c.48,0,1.45,0,2.88,0a25.1,25.1,0,0,0,2.6-.07.19.19,0,0,1,.16.07.24.24,0,0,1,0,.13l.07.91a.9.9,0,0,1,0,.36.13.13,0,0,1-.13.08q-.09,0-.15-.24a2,2,0,0,0-.12-.35q-.16-.3-.93-.3h-1.39c-.17,0-.28,0-.32.11a1.78,1.78,0,0,0-.06.62v.55l0,4.15v.73a1,1,0,0,0,.14.64,1.31,1.31,0,0,0,.32.22,1,1,0,0,0,.29.08c.2,0,.3.08.3.2s0,.14-.06.16a.31.31,0,0,1-.2,0l-1.19-.09L125,116c-.26,0-.39-.06-.39-.19a.18.18,0,0,1,.06-.15,1,1,0,0,1,.25-.07,1.09,1.09,0,0,0,.24,0,.5.5,0,0,0,.41-.45c.07-.66.11-2.09.11-4.28v-2c0-.14,0-.23-.12-.26a2.87,2.87,0,0,0-.78,0,9.72,9.72,0,0,0-1,0,1.42,1.42,0,0,0-.44.09.59.59,0,0,0-.16.16,1.13,1.13,0,0,0-.15.29l-.08.27c0,.17-.08.26-.2.26s-.12-.07-.12-.19a5.21,5.21,0,0,1,.06-.83q0-.36.06-.42s0-.06,0-.07a.15.15,0,0,1,0-.06.35.35,0,0,1,0-.06l0,0a.08.08,0,0,1,0,0l.05,0Z"/><path class="cls-1" d="M131.29,112l0-2c0-.2,0-.54,0-1a.6.6,0,0,0-.27-.51,1.1,1.1,0,0,0-.6-.19c-.11,0-.17-.07-.17-.2s.1-.16.3-.16l.29,0,2.61.06,2.14,0c.14,0,.21.09.21.26s0,.2-.07.45a4,4,0,0,0-.06.6c0,.24-.06.36-.17.36s-.16-.09-.16-.27a.9.9,0,0,0-.19-.53.59.59,0,0,0-.45-.26c-.64,0-1.13-.07-1.47-.07H133a1.47,1.47,0,0,0-.64.07,8.46,8.46,0,0,0-.16,2.51c0,.37.06.57.2.57h1a5.19,5.19,0,0,0,.85,0,.7.7,0,0,0,.64-.59c0-.13.06-.19.14-.19s.11,0,.12,0,0,.07,0,.15l-.08,1.19,0,.69c0,.19,0,.28-.07.28s-.19-.09-.24-.27a1.14,1.14,0,0,0-.27-.55,1.37,1.37,0,0,0-.78-.16h-1.18c-.3,0-.44.07-.44.21l0,1.63v.45c0,.55.08.85.26.9a1.38,1.38,0,0,0,.45.09,7.13,7.13,0,0,0,2.32-.27,1.46,1.46,0,0,0,.77-.52c.09-.19.17-.29.24-.29s.13.07.13.2a1.5,1.5,0,0,1-.46,1,1.27,1.27,0,0,1-.8.5q-.78,0-1.74-.06c-.65,0-1.05,0-1.21,0l-1.45.1c-.15,0-.23,0-.23-.12v-.13c0-.05,0-.08.11-.09a1.33,1.33,0,0,0,.36-.14.67.67,0,0,0,.33-.52,11,11,0,0,0,.08-1.66Z"/><path class="cls-1" d="M137.12,112.31a5.29,5.29,0,0,1,.45-2.21,3.73,3.73,0,0,1,1.39-1.59,4,4,0,0,1,2.22-.6,4.63,4.63,0,0,1,1.31.2,6.56,6.56,0,0,1,1.06.41l.4.21a.17.17,0,0,0,.1,0,.22.22,0,0,1,.13-.06.19.19,0,0,1,.1,0,.45.45,0,0,1,.06.25,4.94,4.94,0,0,0,0,.58c0,.24.05.45.07.6s0,.26,0,.29,0,.2-.13.2-.12,0-.18-.16a3.25,3.25,0,0,0-3-2.06,2.87,2.87,0,0,0-2.2.91,3.29,3.29,0,0,0-.85,2.36,4.8,4.8,0,0,0,.79,2.79,2.83,2.83,0,0,0,1.11.93,3.86,3.86,0,0,0,1.65.34,3,3,0,0,0,2.59-1.7.17.17,0,0,1,.16-.08c.06,0,.09,0,.09.14a2.47,2.47,0,0,1,0,.35c0,.14-.06.3-.09.47l-.07.31a.28.28,0,0,1-.17.2c-.38.2-.68.35-.9.44a4.35,4.35,0,0,1-1.82.39,5.63,5.63,0,0,1-1.72-.24,3.77,3.77,0,0,1-1.22-.62,3.47,3.47,0,0,1-.8-.91A3.88,3.88,0,0,1,137.12,112.31Z"/><path class="cls-1" d="M146.72,111.44v-1.22a9.43,9.43,0,0,0-.07-1.35.55.55,0,0,0-.28-.44.82.82,0,0,0-.44-.16c-.12,0-.21,0-.24-.07a.22.22,0,0,1-.06-.12c0-.09.1-.13.3-.13l1.21,0,.94,0c.15,0,.23,0,.23.15s-.12.2-.37.2-.25.15-.31.46a4.32,4.32,0,0,0-.1.95v.42l0,1a.67.67,0,0,0,.06.36c0,.06.15.08.3.08h1.76l2,0c.08,0,.12-.53.12-1.58v-.61c0-.57-.11-.91-.32-1a.74.74,0,0,0-.27-.1,1.14,1.14,0,0,1-.22-.07.14.14,0,0,1-.09-.15c0-.07.14-.11.42-.11l1,0,.84,0q.24,0,.24.15c0,.09,0,.14-.15.14a.54.54,0,0,0-.45.2.77.77,0,0,0-.16.5l-.05,4.45v.42l0,1c0,.49.3.77.9.83.09,0,.13,0,.13.13s0,.08-.11.1l-.41,0-.83,0-1,0h-.18c-.1,0-.16,0-.18,0a.2.2,0,0,1,0-.11s0-.08.11-.12a.92.92,0,0,1,.23-.09.57.57,0,0,0,.25-.14c.15-.11.23-.46.23-1.06l0-2a.25.25,0,0,0-.13-.24.91.91,0,0,0-.42-.07l-.86,0h-.58l-2,0c-.11,0-.18,0-.21.07a.61.61,0,0,0-.06.35l0,1.39v.49a2.54,2.54,0,0,0,.08.72,1.06,1.06,0,0,0,.42.47.73.73,0,0,0,.31,0c.24,0,.35,0,.35.13s-.11.2-.34.2l-.89,0-1.15,0c-.34,0-.5,0-.5-.17s.11-.17.33-.2a.5.5,0,0,0,.27-.14.69.69,0,0,0,.18-.35,11.67,11.67,0,0,0,.09-1.2c0-.65.06-1.26.06-1.85Z"/><path class="cls-1" d="M155.56,116l-.91,0c-.15,0-.23-.06-.23-.18s.05-.11.14-.13a1,1,0,0,0,.34-.18.82.82,0,0,0,.29-.48,16.92,16.92,0,0,0,.18-2.18c.07-1.23.1-2.13.1-2.68a2.84,2.84,0,0,0-.26-1.32,1,1,0,0,0-.83-.55c-.1,0-.14-.07-.14-.17a.16.16,0,0,1,.07-.13.31.31,0,0,1,.19-.06h.41l.53,0a.61.61,0,0,1,.22.07c.09,0,.14.08.15.11a.67.67,0,0,0,.12.17l.25.31a4.22,4.22,0,0,1,.29.37q1.46,2,3.9,4.84l.15.18.13.15.08.1c.05,0,.09.08.12.08s.11-.24.11-.7v-1.33l0-2.32v-.08c0-.69-.11-1.13-.34-1.32a.63.63,0,0,0-.21-.13l-.25-.07c-.29-.06-.44-.14-.44-.25s.07-.16.21-.16h1l1,0a.67.67,0,0,1,.25,0,.15.15,0,0,1,.07.12.14.14,0,0,1-.07.13,1.23,1.23,0,0,1-.31.13c-.23.14-.35.57-.35,1.28v.43l-.12,5.61v.22c0,.18,0,.26-.15.26a.23.23,0,0,1-.17-.07q-3.56-4.36-4.24-5.18a4.65,4.65,0,0,0-.77-.83c-.07,0-.1.31-.1.93s0,1.33,0,2.16,0,1.28,0,1.35a1.5,1.5,0,0,0,.17.78.56.56,0,0,0,.36.3l.35.07c.11,0,.17.08.17.16s0,.13,0,.15-.07,0-.13,0Z"/><path class="cls-1" d="M163.17,112.15a4.56,4.56,0,0,1,1.08-3.12,3.88,3.88,0,0,1,3.06-1.21,4.59,4.59,0,0,1,1.66.28,3.31,3.31,0,0,1,1.16.7,3.67,3.67,0,0,1,.72.94,3.76,3.76,0,0,1,.5,1.81,5.47,5.47,0,0,1-.56,2.61,3.79,3.79,0,0,1-3.63,2,4,4,0,0,1-2.2-.59,3.57,3.57,0,0,1-1.36-1.48A4.36,4.36,0,0,1,163.17,112.15Zm.94-.57a4.86,4.86,0,0,0,.5,2.06,5,5,0,0,0,.65,1,3.12,3.12,0,0,0,1,.74,3,3,0,0,0,4.26-2.8,4.6,4.6,0,0,0-1-3.18,3.24,3.24,0,0,0-2.51-1.14,2.71,2.71,0,0,0-2,.84A3.38,3.38,0,0,0,164.11,111.58Z"/><path class="cls-1" d="M173.19,112l0-2c0-.2,0-.54,0-1a.62.62,0,0,0-.27-.51.85.85,0,0,0-.48-.18c-.15,0-.24,0-.26-.05a.29.29,0,0,1,0-.12c0-.13.09-.2.29-.2l.29,0,.93,0,1.12,0c.12,0,.18,0,.18.11a.19.19,0,0,1-.13.21.82.82,0,0,1-.28.07c-.1,0-.2.1-.3.25a1.48,1.48,0,0,0-.17.69c0,.3,0,1.12-.05,2.48s0,2.1,0,2.26v.45c0,.55.09.85.26.9a1.48,1.48,0,0,0,.46.09,7.06,7.06,0,0,0,2.31-.27,1.46,1.46,0,0,0,.77-.52c.09-.19.17-.29.24-.29s.13.07.13.2a1.45,1.45,0,0,1-.46,1,1.25,1.25,0,0,1-.8.5c-.52,0-1.09,0-1.74-.06s-1,0-1.2,0l-1.34.09c-.21,0-.31,0-.31-.14a.16.16,0,0,1,.06-.13.25.25,0,0,1,.16-.05.52.52,0,0,0,.28-.14.91.91,0,0,0,.26-.56,9.83,9.83,0,0,0,.08-1.63Z"/><path class="cls-1" d="M179,112.15A4.56,4.56,0,0,1,180.1,109a3.9,3.9,0,0,1,3.07-1.21,4.53,4.53,0,0,1,1.65.28,3.46,3.46,0,0,1,1.17.7,4.19,4.19,0,0,1,.72.94,3.87,3.87,0,0,1,.5,1.81,5.47,5.47,0,0,1-.57,2.61,3.79,3.79,0,0,1-3.63,2,3.92,3.92,0,0,1-2.19-.59,3.57,3.57,0,0,1-1.36-1.48A4.36,4.36,0,0,1,179,112.15Zm.95-.57a4.72,4.72,0,0,0,.5,2.06,4.59,4.59,0,0,0,.65,1,3,3,0,0,0,1,.74,2.87,2.87,0,0,0,1.28.29,3.1,3.1,0,0,0,2.77-2,3.1,3.1,0,0,0,.2-1.12,4.6,4.6,0,0,0-1-3.18,3.21,3.21,0,0,0-2.51-1.14,2.74,2.74,0,0,0-2,.84A3.38,3.38,0,0,0,180,111.58Z"/><path class="cls-1" d="M195.07,111.86h1c.11,0,.17,0,.17.1s-.09.12-.27.2-.29.19-.31.32a6.94,6.94,0,0,0-.07,1c0,.37,0,.65,0,.82s0,.29,0,.37,0,.13,0,.18a.72.72,0,0,1,0,.13s0,0-.08.07l-.26.08a1.24,1.24,0,0,0-.33.15l-.23.14-.2.11-.25.14-.29.14a2.52,2.52,0,0,1-.33.13l-.35.1a3.07,3.07,0,0,1-.77.1,5.68,5.68,0,0,1-2-.33,3.13,3.13,0,0,1-1.33-.9,4.11,4.11,0,0,1-.92-2.68,5.09,5.09,0,0,1,.46-2.22,3.71,3.71,0,0,1,1.43-1.59,4.17,4.17,0,0,1,2.29-.61,4.54,4.54,0,0,1,2.21.51,2.21,2.21,0,0,1,.32.21c.08.06.12.08.14.08a.29.29,0,0,0,.14-.08.32.32,0,0,1,.16-.08c.1,0,.16.09.16.27s0,.4,0,.64.05.44.07.6a2.12,2.12,0,0,1,0,.29c0,.12-.05.19-.13.19a.18.18,0,0,1-.18-.14,3.35,3.35,0,0,0-1.26-1.45,3.13,3.13,0,0,0-1.8-.6,3,3,0,0,0-2.21.89,3.36,3.36,0,0,0-.88,2.46,5.3,5.3,0,0,0,.37,2,3.6,3.6,0,0,0,1.11,1.52,2.53,2.53,0,0,0,1.63.6,2.92,2.92,0,0,0,1.56-.4,1.33,1.33,0,0,0,.75-.9c0-.18,0-.66,0-1.43a.9.9,0,0,0-.15-.6.83.83,0,0,0-.49-.21c-.22,0-.35-.06-.37-.11a.27.27,0,0,1,0-.14c0-.09.07-.13.19-.13Z"/><path class="cls-1" d="M200.2,115l0-2.29a1.71,1.71,0,0,0-.28-.93c-.17-.29-.4-.65-.67-1.08s-.53-.82-.74-1.16a5,5,0,0,0-.59-.79.84.84,0,0,0-.79-.38c-.15,0-.23,0-.23-.14a.16.16,0,0,1,.13-.17,2.91,2.91,0,0,1,.54,0l.62,0h.91c.35,0,.53,0,.53.13s-.07.16-.22.22-.23.12-.23.19a.79.79,0,0,0,.07.29,1.58,1.58,0,0,0,.14.29l.21.33.33.54c.13.22.32.52.58.89s.41.55.45.55.09,0,.16-.13l.27-.43c.11-.21.19-.35.24-.43l.2-.31.17-.27.15-.25a2.07,2.07,0,0,0,.13-.25s.06-.12.1-.2a.82.82,0,0,0,.11-.34c0-.28-.17-.43-.49-.48-.16,0-.25,0-.27-.1a.26.26,0,0,1,0-.11c0-.1.1-.14.3-.14h1.57c.35,0,.52.06.52.17a.09.09,0,0,1-.06.08l-.18.09a1.64,1.64,0,0,0-.22.14,8.17,8.17,0,0,0-1.29,1.72c-.56.9-.9,1.42-1,1.55a1,1,0,0,0-.19.46,6.82,6.82,0,0,0,0,.93v1.59a1.23,1.23,0,0,0,.12.59c.08.14.16.23.23.25a.54.54,0,0,0,.22,0h.21a.17.17,0,0,1,.12,0,.21.21,0,0,1,0,.14.14.14,0,0,1-.05.12.51.51,0,0,1-.21,0h-1.07l-1.17,0q-.3,0-.3-.12a.18.18,0,0,1,.06-.15.36.36,0,0,1,.19-.05l.21,0A.65.65,0,0,0,200.2,115Z"/><path class="cls-1" d="M261.76,41.74H237.7V83.9h-5.93V41.75h-24V38.51h54Z"/><path class="cls-1" d="M203.25,72.42q0-3.66-4.25-5.81t-15.56-4.06q-11.31-1.92-16.51-4.2-7.4-3.21-7.4-8.43t6.87-8.25q6.89-3.16,17.58-3.17c4.78,0,8.49,0,13,1.7A23.54,23.54,0,0,1,205.36,46a8.42,8.42,0,0,1,2,3.78,7.74,7.74,0,0,1,.08,2.59l-6.27-.16a6.29,6.29,0,0,0-.4-2.9c-.75-1.9-2.34-3-4.1-3.94A34.83,34.83,0,0,0,184,41.66a27,27,0,0,0-13.31,2.26q-5,2.27-5,5.92,0,3.38,4.45,5.5t14.26,3.75a97.43,97.43,0,0,1,14.86,3.36,20.9,20.9,0,0,1,7.6,4.18,7.69,7.69,0,0,1,2.56,5.73q0,5.22-6.88,8.38T184.45,83.9a56.36,56.36,0,0,1-14.14-1.67q-6.42-1.67-9.75-4.67a10.12,10.12,0,0,1-3-4.63,10.4,10.4,0,0,1-.38-4.49l6.44.38a7.56,7.56,0,0,0,.18,4.14c.4,1.13,1.36,3.2,5.37,5.09q5.75,2.7,15.31,2.69c5.66,0,10.22-.76,13.65-2.28S203.25,74.93,203.25,72.42Z"/><path class="cls-1" d="M126.76,41.14a27,27,0,0,1-7.92,10,38.15,38.15,0,0,0-11.06-12.91c-14.62-10.6-29.47-4-38.93-12.85-2.79-2.61-5.42-6.87-6.22-14.26a25.43,25.43,0,0,0,9.74,9.93,24.52,24.52,0,0,0,7.86,2.69,66.15,66.15,0,0,0,9,.8c3.3.17,5.74.24,5.91.24,8,.24,17.67.52,24.36,5.69A22.07,22.07,0,0,1,126.76,41.14Z"/><path class="cls-1" d="M155.26,42.37c0,23.12-17.69,41.86-39.51,41.86S76.24,65.49,76.24,42.37c0-1.11,0-2.2.12-3.28h3.37c-.1,1.08-.14,2.17-.14,3.28,0,21.09,16.22,38.26,36.16,38.26s36.16-17.17,36.16-38.26c0-1.11,0-2.2-.14-3.28h3.37C155.22,40.17,155.26,41.26,155.26,42.37Z"/><path class="cls-1" d="M150.44,42.37c0,20.29-15.56,36.8-34.69,36.8S81.06,62.66,81.06,42.37c0-1.11,0-2.2.14-3.28H91.82a22.12,22.12,0,0,0-.23,3.28,24.3,24.3,0,0,0,.29,3.74L84.08,50a31.17,31.17,0,0,0,.88,3l8.57-1.17a24.29,24.29,0,0,0,1.83,3.46l-5.9,6.27a32.09,32.09,0,0,0,2.28,2.78l7.78-4.12a23.42,23.42,0,0,0,3,2.28l-2,8.57a28,28,0,0,0,2.82,1.34l4.6-7.25a23.61,23.61,0,0,0,4.59,1.09c.55,2.87,1.09,5.74,1.64,8.61.55,0,1.11,0,1.67,0s1.07,0,1.59,0q.63-4.27,1.25-8.55a24.56,24.56,0,0,0,4.64-1q2,3.75,4,7.5a31,31,0,0,0,3.23-1.42c-.49-3-1-5.92-1.44-8.88a24.62,24.62,0,0,0,2.8-2.17L139.2,65a30.76,30.76,0,0,0,2.18-2.52q-2.74-3.37-5.48-6.77a24.64,24.64,0,0,0,1.89-3.41l8.6,1.17c.37-1,.68-2.07,1-3.13l-7.78-3.9a23.62,23.62,0,0,0,.12-7.34H150.3C150.4,40.17,150.44,41.26,150.44,42.37Z"/><path class="cls-1" d="M131.92,23.17a38.17,38.17,0,0,0-3.58,1.51,18.42,18.42,0,0,0-6.12-10.83c-11-8.78-27.44,5.84-46-2.61A35.19,35.19,0,0,1,62.73,0c0,.15,0,.3,0,.44C64.57,8.06,68.17,14,73.08,16.52a42.07,42.07,0,0,0,12.19,3.63,52.79,52.79,0,0,0,9.85.31c5.4-.06,18.59-.53,27.25,6.72.18.14.35.3.52.45-8.67,5.27-17.42,13.23-22,20.46-6.18,9.79-2.33,14.51,8.61,10.55a59.35,59.35,0,0,0,13.6-7.48,2.27,2.27,0,1,0-.23-1,2,2,0,0,0,.12.7c-4.65,2.7-7.13,4.1-9.47,4.89-4.28,1.45-9,3.06-10.94,1.09-2.72-2.8,2-11.07,2.72-12.41,2.75-4.84,6-7.47,11.68-12A56.36,56.36,0,0,1,123.29,28a29,29,0,0,1,5.35,6.55,28.72,28.72,0,0,0-.14-9c.6-.18,1.14-.31,1.63-.41,1.89-.39,6.31-1.29,7.83.78s-.47,6.92-.94,8c-.15.35-.36.74-.76,1.51-3.5,6.66-5.87,9.45-6.66,10.34-.6.69-1,1.1-1.24,1.32a61.82,61.82,0,0,0,12.17-13.37C146.72,23.93,142.86,19.2,131.92,23.17Z"/><path class="cls-1" d="M102.71,21.57"/><path class="cls-1" d="M0,83.9V38.54H24.09q13.11,0,19.89,3t6.78,8.87q0,3.53-3.45,6.13a22.15,22.15,0,0,1-9.44,3.72,25.31,25.31,0,0,1,11.46,3.9c2.89,2,4.34,4.34,4.34,7q0,6-7,9.39T27.28,83.9Zm6.89-25H25.71q8.64-.09,13.37-2.26t4.73-6.32c0-2.92-1.63-5.06-4.9-6.45s-8.21-2.07-14.82-2.07H6.89Zm0,3.24V80.66H27.56q8.85,0,14-2.5t5.18-7q0-4.2-5-6.64t-13.7-2.44Z"/><path class="cls-1" d="M68.87,83.9H62.14V38.5h6.73Z"/><rect class="cls-1" y="90.14" width="240.55" height="1"/></svg>